<svg width="100" height="44" viewBox="0 0 100 44" fill="none" xmlns="http://www.w3.org/2000/svg">
<path d="M40.684 43.8084C42.6341 38.6285 44.5841 33.4487 46.5969 28.1028C46.0451 28.0389 45.6313 27.9431 45.2174 27.9431C43.2047 27.9303 41.1856 27.9431 39.1729 27.9431C38.897 27.9431 38.6023 28.0134 38.3577 27.9239C38.0003 27.7898 37.6931 27.5407 37.3608 27.3363C37.6806 27.1256 37.9941 26.7615 38.3264 26.7423C39.4112 26.6657 40.5085 26.7168 41.5995 26.7168H51.0237C51.2996 26.7168 51.632 26.8126 51.8263 26.6849C52.2088 26.4422 52.5098 26.0653 52.8421 25.746C52.5035 25.4713 52.19 25.0051 51.8201 24.9604C50.9109 24.8454 49.9829 24.9157 49.0611 24.9157C45.1359 24.9157 41.2107 24.9157 37.2793 24.9157C37.0096 24.9157 36.7024 24.9731 36.4704 24.8646C36.2635 24.7688 36.0127 24.4877 36.0001 24.2897C35.9939 24.0854 36.2321 23.7852 36.4328 23.6957C36.6961 23.5808 37.0347 23.6127 37.3357 23.6127C42.6968 23.6063 48.0579 23.6063 53.419 23.5999C53.7576 23.5999 54.1401 23.6766 54.4348 23.5552C54.7357 23.4275 55.1496 23.0954 55.1496 22.8527C55.1496 22.5269 54.8549 22.1118 54.5665 21.9138C54.3219 21.7477 53.9081 21.8052 53.5695 21.8052C49.8825 21.7988 46.1956 21.8052 42.5087 21.7988C42.2014 21.7988 41.8691 21.8499 41.5995 21.7413C41.3926 21.6647 41.1292 21.3837 41.1229 21.1857C41.1167 21.0068 41.3988 20.7258 41.6058 20.6619C41.9193 20.5597 42.283 20.5981 42.6215 20.5981C45.5937 20.5981 48.5595 20.5981 51.5316 20.5917C51.9079 20.5917 52.3342 20.6555 52.6415 20.4959C52.9487 20.3362 53.3249 19.9338 53.3187 19.64C53.3187 19.3462 52.9299 18.9694 52.6164 18.7969C52.3468 18.6436 51.9517 18.7203 51.6069 18.7203C48.3965 18.7203 45.1861 18.7203 41.9757 18.7203C41.6685 18.7203 41.3361 18.7778 41.0603 18.682C40.822 18.5989 40.6464 18.3371 40.4395 18.1518C40.6589 17.9411 40.8659 17.7239 41.0979 17.5323C41.1606 17.4812 41.2985 17.5004 41.3988 17.5195C43.4994 17.9538 44.7284 16.8106 45.9887 15.2649C50.0268 10.3278 54.209 5.51198 58.3349 0.638699C58.4854 0.459864 58.5606 0.217158 58.6735 0C58.7801 0.0830309 58.8867 0.159676 58.9933 0.242706C57.1874 5.92074 55.3816 11.5988 53.5193 17.462H64.0346C64.0785 17.5451 64.1224 17.6281 64.16 17.7111C56.3848 26.4741 48.6097 35.237 40.8282 44C40.7718 43.9425 40.7154 43.8786 40.6589 43.8212L40.684 43.8084Z" fill="#F55D15"/>
</svg>
