<svg width="155" height="43" viewBox="0 0 155 43" fill="none" xmlns="http://www.w3.org/2000/svg">
<path d="M68.5776 42.8127C70.4833 37.7506 72.3891 32.6885 74.3561 27.4641C73.8168 27.4017 73.4124 27.308 73.008 27.308C71.0409 27.2955 69.0678 27.308 67.1008 27.308C66.8312 27.308 66.5431 27.3767 66.3042 27.2893C65.9549 27.1582 65.6546 26.9148 65.3298 26.7151C65.6424 26.5091 65.9488 26.1533 66.2735 26.1346C67.3336 26.0597 68.406 26.1096 69.4722 26.1096H78.6823C78.9519 26.1096 79.2767 26.2032 79.4666 26.0784C79.8404 25.8412 80.1346 25.4729 80.4593 25.1608C80.1284 24.8924 79.8221 24.4368 79.4605 24.3931C78.572 24.2807 77.6651 24.3494 76.7643 24.3494C72.9283 24.3494 69.0923 24.3494 65.2502 24.3494C64.9867 24.3494 64.6864 24.4056 64.4597 24.2995C64.2575 24.2058 64.0124 23.9312 64.0001 23.7377C63.994 23.538 64.2268 23.2446 64.4229 23.1572C64.6803 23.0449 65.0112 23.0761 65.3053 23.0761C70.5446 23.0698 75.7838 23.0698 81.0231 23.0636C81.354 23.0636 81.7278 23.1385 82.0158 23.0199C82.3099 22.895 82.7144 22.5705 82.7144 22.3333C82.7144 22.015 82.4264 21.6092 82.1445 21.4157C81.9055 21.2534 81.5011 21.3096 81.1702 21.3096C77.567 21.3034 73.9639 21.3096 70.3608 21.3034C70.0605 21.3034 69.7357 21.3533 69.4722 21.2472C69.27 21.1723 69.0126 20.8977 69.0065 20.7042C69.0004 20.5294 69.2761 20.2548 69.4784 20.1923C69.7847 20.0925 70.1402 20.1299 70.4711 20.1299C73.3756 20.1299 76.2741 20.1299 79.1786 20.1237C79.5463 20.1237 79.963 20.1861 80.2633 20.0301C80.5635 19.874 80.9312 19.4808 80.9251 19.1936C80.9251 18.9065 80.5451 18.5382 80.2387 18.3697C79.9753 18.2199 79.5892 18.2948 79.2522 18.2948C76.1147 18.2948 72.9773 18.2948 69.8399 18.2948C69.5396 18.2948 69.2149 18.351 68.9452 18.2574C68.7124 18.1762 68.5408 17.9203 68.3386 17.7393C68.5531 17.5333 68.7553 17.3211 68.982 17.1338C69.0433 17.0839 69.1781 17.1026 69.2761 17.1214C71.3289 17.5458 72.53 16.4285 73.7617 14.918C77.708 10.093 81.7952 5.3867 85.8273 0.624183C85.9744 0.449412 86.0479 0.212222 86.1582 0C86.2624 0.0811438 86.3665 0.156047 86.4707 0.23719C84.7059 5.78618 82.9411 11.3352 81.1211 17.0652H91.3974C91.4403 17.1463 91.4832 17.2275 91.52 17.3086C83.9215 25.8724 76.3231 34.4362 68.7185 43C68.6634 42.9438 68.6082 42.8814 68.5531 42.8252L68.5776 42.8127Z" fill="#F55D15"/>
</svg>
